<svg xmlns="http://www.w3.org/2000/svg" xmlns:svg="http://www.w3.org/2000/svg" id="svg5918" width="24" height="24" version="1.1" viewBox="0 0 24 24"><metadata id="metadata5923"/><g id="layer1" transform="translate(-182.93849,-552.7201)"><g style="display:inline" id="g5346" transform="translate(-769.06151,404.35792)"><rect id="rect5348" width="16" height="16" x="952" y="156.362" style="color:#000;display:inline;overflow:visible;visibility:visible;opacity:1;fill:none;fill-opacity:1;fill-rule:nonzero;stroke:none;stroke-width:1.5;stroke-linecap:butt;stroke-linejoin:miter;stroke-miterlimit:4;stroke-dasharray:1.5,1.5;stroke-dashoffset:.60000002;stroke-opacity:1;marker:none;enable-background:accumulate"/><g style="display:inline" id="g4586" transform="translate(840,-160)"><path style="color:#000;display:inline;overflow:visible;visibility:visible;fill:gray;fill-opacity:1;fill-rule:nonzero;stroke:none;stroke-width:3;marker:none;enable-background:accumulate" id="path4596" d="m 123.99283,309.36358 c -0.002,0.003 0.001,0.008 0,0.008 l -0.008,0 c -1.71049,2.45197 -3.10423,4.93973 -4.07551,6.81731 -2.10384,0.31117 -4.81864,0.80984 -7.47178,1.58768 -0.001,0.004 -0.003,0.007 0,0.008 -0.001,0.004 0.008,0 0.008,0 0.003,0.003 0,0.007 0,0.008 1.7427,2.40099 3.6227,4.51782 5.07373,6.04827 -0.30921,2.09328 -0.6127,4.79019 -0.63848,7.5208 0.003,0.003 0.008,3e-5 0.008,0 0.003,0.003 0.008,1.3e-4 0.008,0 2.76183,-0.95579 5.29083,-2.1156 7.16879,-3.05248 1.90871,0.96381 4.44942,2.13293 7.10378,3.03597 0.002,-0.003 0.009,0.003 0.008,0 0.002,-0.003 8e-5,-0.008 0,-0.008 0.002,-0.003 8e-5,-0.007 0,-0.008 -0.0423,-2.88106 -0.34101,-5.60093 -0.63849,-7.66789 1.48688,-1.54248 3.37124,-3.64296 5.02471,-5.92544 -5.4e-4,-0.003 -0.005,0 -0.008,0 -0.003,2.1e-4 -0.008,-0.008 -0.008,-0.008 -2.75889,-0.80616 -5.44327,-1.32856 -7.50427,-1.65323 -0.98928,-1.90965 -2.38967,-4.39035 -4.04302,-6.71043 -0.002,-1e-4 -0.006,-0.003 -0.008,0 z"/><g style="display:inline" id="g4590" transform="matrix(0.50000001,0,0,0.50000006,-32.00001,-169.81897)"><rect style="opacity:.21171169;fill:none;stroke:none" id="rect4592" width="48" height="48" x="288" y="152" transform="translate(0,804.3622)"/></g></g></g></g></svg>