<svg xmlns="http://www.w3.org/2000/svg" xmlns:svg="http://www.w3.org/2000/svg" id="svg5918" width="24" height="24" version="1.1" viewBox="0 0 24 24"><metadata id="metadata5923"/><g id="layer1" transform="translate(-182.93849,-552.7201)"><g style="display:inline" id="g5346" transform="translate(-769.06151,404.35792)"><rect id="rect5348" width="16" height="16" x="952" y="156.362" style="color:#000;display:inline;overflow:visible;visibility:visible;opacity:1;fill:none;fill-opacity:1;fill-rule:nonzero;stroke:none;stroke-width:1.5;stroke-linecap:butt;stroke-linejoin:miter;stroke-miterlimit:4;stroke-dasharray:1.5,1.5;stroke-dashoffset:.60000002;stroke-opacity:1;marker:none;enable-background:accumulate"/><g style="display:inline" id="g4581" transform="translate(840,-160)"><path id="path4117" d="m 123.99283,309.36358 c -0.002,0.003 0.001,0.008 0,0.008 l -0.008,0 c -1.71049,2.45197 -3.10423,4.93973 -4.07551,6.81731 -2.10384,0.31117 -4.81864,0.80984 -7.47178,1.58768 -0.001,0.004 -0.003,0.007 0,0.008 -0.001,0.004 0.008,0 0.008,0 0.003,0.003 0,0.007 0,0.008 1.7427,2.40099 3.6227,4.51782 5.07373,6.04827 -0.30921,2.09328 -0.6127,4.79019 -0.63848,7.5208 0.003,0.003 0.008,3e-5 0.008,0 0.003,0.003 0.008,1.3e-4 0.008,0 2.76183,-0.95579 5.29083,-2.1156 7.16879,-3.05248 1.90871,0.96381 4.44942,2.13293 7.10378,3.03597 0.002,-0.003 0.009,0.003 0.008,0 0.002,-0.003 8e-5,-0.008 0,-0.008 0.002,-0.003 8e-5,-0.007 0,-0.008 -0.0423,-2.88106 -0.34101,-5.60093 -0.63849,-7.66789 1.48688,-1.54248 3.37124,-3.64296 5.02471,-5.92544 -5.4e-4,-0.003 -0.005,0 -0.008,0 -0.003,2.1e-4 -0.008,-0.008 -0.008,-0.008 -2.75889,-0.80616 -5.44327,-1.32856 -7.50427,-1.65323 -0.98928,-1.90965 -2.38967,-4.39035 -4.04302,-6.71043 -0.002,-1e-4 -0.006,-0.003 -0.008,0 z m 0.0154,3.05141 0,0.003 0.36138,0.59056 c 0.83737,1.36712 1.60438,2.70541 2.19201,3.8397 l 0.38508,0.75032 0.83515,0.13003 c 1.22086,0.19235 2.68457,0.48339 4.2182,0.8324 l 0.67429,0.15315 -0.44347,0.5305 c -1.01275,1.21104 -2.01384,2.34296 -2.89274,3.2547 l -0.56797,0.58725 0.11789,0.80981 c 0.17677,1.22824 0.33275,2.71899 0.45283,4.29147 l 0.0529,0.69027 -0.63849,-0.26774 c -1.44226,-0.6049 -2.81284,-1.22816 -3.93724,-1.79592 l -0.74426,-0.37186 -0.75141,0.37242 -10e-4,0 c -1.12438,0.56091 -2.52307,1.19064 -4.01051,1.81134 l -0.64014,0.26717 0.0556,-0.69083 c 0.11844,-1.48229 0.26632,-2.90893 0.44512,-4.11957 l 0.11734,-0.80376 -0.5542,-0.58725 c -0.87941,-0.9275 -1.91138,-2.11648 -2.96546,-3.3935 l -0.44126,-0.53437 0.67704,-0.14819 c 1.48687,-0.3245 2.92122,-0.5936 4.14493,-0.77456 l 5.4e-4,0 0.84948,-0.12394 0.39112,-0.75638 c 0.59038,-1.14128 1.38502,-2.52424 2.25646,-3.95432 l 0.36083,-0.59112 z" style="color:#000;display:inline;overflow:visible;visibility:visible;fill:gray;fill-opacity:1;fill-rule:nonzero;stroke:none;stroke-width:3;marker:none;enable-background:accumulate"/><g id="g5011" transform="matrix(0.50000001,0,0,0.50000006,-32.00001,-169.81897)" style="display:inline"><rect id="rect5013" width="48" height="48" x="288" y="152" transform="translate(0,804.3622)" style="opacity:.21171169;fill:none;stroke:none"/></g></g></g></g></svg>